<svg xmlns="http://www.w3.org/2000/svg" viewBox="0 0 72 72"><linearGradient id="a" gradientUnits="userSpaceOnUse" x1="16.88" y1="107.11" x2="52.71" y2="107.11" gradientTransform="translate(0 -70)"><stop offset="0" stop-color="#faa905"/><stop offset="1" stop-color="#ec6e0a"/></linearGradient><path d="M17.34 36.02s.8-.1 1.1.2c.3.3.1 1.1-.3 1.1s-.9.1-1.1-.2c-.3-.3-.2-1 .3-1.1m8.8 4.9c-.1 0-.2 0-.2-.1-.6-.8-.8-3.6-1.1-3.8s-1.3 1.5-3.3 1.4c-.8-.1-1.7-.6-2.2-1 0-.6.1-2.1 1.3-1.6.8.3 2.1 1.1 3.2-.3 1.3-1.6 1.9-1.1 2.4-.8.4.3.1 2.1.8 1.6.6-.5 3.1-3.6 3.1-3.6s1.9-2 2.2.1 1.6 4.3 1.9 4.3c.3-.1 4.2-8 4.8-8.5s2.4-.4 2.3.9c-.1 1.3-.3 9.5-.3 9.5s-.2 2.3.1 1.1c.1-.5.3-1 .5-1.5 1-3.1 2.6-8.3 3.4-11.1.2-.6.3-1.2.5-1.6 0-.2.1-.4.1-.5.1-.2.1-.4.1-.4 0-.1.1-.2.3-.2.1-.1.3-.1.5-.1.5 0 1 0 1.6.2.2 0 .3.1.5.2l.1.1.1.1c.3.4.5 1.2.3 2.6-.4 3.5-.8 10.7-.8 10.7s-.1.3.7-1.2c0-.1.1-.1.1-.1l.1-.1c.4-.5 1.6-.8 2.5-.8.4 0 .6.1.8.2.3.5.1 2.3.1 2.3-.7.1-2 .4-2.5.5s-1.2 3.1-2.2 2.8-3.2-1.7-3.2-1.9.2-2.2.2-2.7v-.1c0-.4 0-.6-.2-.2-.2.4-.9 2.6-1.7 5.1-.1.2-1.6 4.7-1.8 5.3s-.4 1.1-.6 1.4c-.2.3-.5.5-.9.3-1-.3-2.2-1.6-2.2-2 0-1.9.1-12-.4-11.1-.5.9-4.1 6.8-4.1 6.8h-.2c-.3 0-.7-.1-.8-.4v-.1c0-.2-.1-.3-.1-.5-.2-.5-.4-1.3-.7-2.1-.4-1.4-.8-2.8-.9-2.9-.1-.3-.3-.2-.5 0-.4.6-2.1 3.6-3.7 3.8" fill-rule="evenodd" clip-rule="evenodd" fill="url(#a)"/></svg>