<?xml version="1.0" encoding="UTF-8"?><svg id="Layer_1" xmlns="http://www.w3.org/2000/svg" version="1.1" viewBox="0 0 72 72"><!--Generator: Adobe Illustrator 29.0.0, SVG Export Plug-In . SVG Version: 2.1.0 Build 186)--><defs><style>.st0{fill:#e62117}</style></defs><path class="st0" d="M36 25.875c-5.592 0-10.125 4.533-10.125 10.125S30.408 46.125 36 46.125 46.125 41.592 46.125 36 41.592 25.875 36 25.875Zm-3.633 15.348V30.777l8.856 4.996-8.856 5.45Z"/><path class="st0" d="M36 18c-9.941 0-18 8.059-18 18s8.059 18 18 18 18-8.059 18-18-8.059-18-18-18Zm0 29.625c-6.41 0-11.625-5.215-11.625-11.625S29.59 24.375 36 24.375 47.625 29.59 47.625 36 42.41 47.625 36 47.625Z"/></svg>